<?xml version="1.0" encoding="UTF-8" standalone="no"?>
<!DOCTYPE svg PUBLIC "-//W3C//DTD SVG 1.1//EN"
 "http://www.w3.org/Graphics/SVG/1.1/DTD/svg11.dtd">
<!-- Generated by graphviz version 2.38.0 (20140413.2041)
 -->
<!-- Title: packages Pages: 1 -->
<svg width="142pt" height="116pt"
 viewBox="0.00 0.00 141.50 116.00" xmlns="http://www.w3.org/2000/svg" xmlns:xlink="http://www.w3.org/1999/xlink">
<g id="graph0" class="graph" transform="scale(1 1) rotate(0) translate(4 112)">
<title>packages</title>
<polygon fill="white" stroke="none" points="-4,4 -4,-112 137.5,-112 137.5,4 -4,4"/>
<!-- 0 -->
<g id="node1" class="node"><title>0</title>
<polygon fill="none" stroke="black" points="61,-36 3.55271e-015,-36 3.55271e-015,-0 61,-0 61,-36"/>
<text text-anchor="middle" x="30.5" y="-14.3" font-family="Times New Roman,serif" font-size="14.00">enemies</text>
</g>
<!-- 1 -->
<g id="node2" class="node"><title>1</title>
<polygon fill="none" stroke="black" points="101.5,-108 35.5,-108 35.5,-72 101.5,-72 101.5,-108"/>
<text text-anchor="middle" x="68.5" y="-86.3" font-family="Times New Roman,serif" font-size="14.00">gameunit</text>
</g>
<!-- 0&#45;&gt;1 -->
<g id="edge1" class="edge"><title>0&#45;&gt;1</title>
<path fill="none" stroke="black" d="M39.8933,-36.3034C44.2649,-44.3564 49.5573,-54.1055 54.3953,-63.0176"/>
<polygon fill="black" stroke="black" points="59.2148,-71.8957 50.489,-65.2541 56.8293,-67.5014 54.4438,-63.1071 54.4438,-63.1071 54.4438,-63.1071 56.8293,-67.5014 58.3987,-60.9602 59.2148,-71.8957 59.2148,-71.8957"/>
</g>
<!-- 2 -->
<g id="node3" class="node"><title>2</title>
<polygon fill="none" stroke="black" points="133.5,-36 79.5,-36 79.5,-0 133.5,-0 133.5,-36"/>
<text text-anchor="middle" x="106.5" y="-14.3" font-family="Times New Roman,serif" font-size="14.00">hero</text>
</g>
<!-- 2&#45;&gt;1 -->
<g id="edge2" class="edge"><title>2&#45;&gt;1</title>
<path fill="none" stroke="black" d="M97.1067,-36.3034C92.7351,-44.3564 87.4427,-54.1055 82.6047,-63.0176"/>
<polygon fill="black" stroke="black" points="77.7852,-71.8957 78.6013,-60.9602 80.1707,-67.5014 82.5562,-63.1071 82.5562,-63.1071 82.5562,-63.1071 80.1707,-67.5014 86.511,-65.2541 77.7852,-71.8957 77.7852,-71.8957"/>
</g>
</g>
</svg>
