<?xml version="1.0" encoding="UTF-8" standalone="no"?>
<!DOCTYPE svg PUBLIC "-//W3C//DTD SVG 1.1//EN"
 "http://www.w3.org/Graphics/SVG/1.1/DTD/svg11.dtd">
<!-- Generated by graphviz version 2.38.0 (20140413.2041)
 -->
<!-- Title: classes Pages: 1 -->
<svg width="262pt" height="246pt"
 viewBox="0.00 0.00 261.50 246.00" xmlns="http://www.w3.org/2000/svg" xmlns:xlink="http://www.w3.org/1999/xlink">
<g id="graph0" class="graph" transform="scale(1 1) rotate(0) translate(4 242)">
<title>classes</title>
<polygon fill="white" stroke="none" points="-4,4 -4,-242 257.5,-242 257.5,4 -4,4"/>
<!-- 0 -->
<g id="node1" class="node"><title>0</title>
<polygon fill="none" stroke="black" points="63.5,-122.5 63.5,-237.5 236.5,-237.5 236.5,-122.5 63.5,-122.5"/>
<text text-anchor="middle" x="150" y="-222.3" font-family="Times New Roman,serif" font-size="14.00">Animal</text>
<polyline fill="none" stroke="black" points="63.5,-214.5 236.5,-214.5 "/>
<polyline fill="none" stroke="black" points="63.5,-190.5 236.5,-190.5 "/>
<text text-anchor="start" x="71.5" y="-175.3" font-family="Times New Roman,serif" font-size="14.00">get_age()</text>
<text text-anchor="start" x="71.5" y="-160.3" font-family="Times New Roman,serif" font-size="14.00">get_description()</text>
<text text-anchor="start" x="71.5" y="-145.3" font-family="Times New Roman,serif" font-size="14.00">get_name()</text>
<text text-anchor="start" x="71.5" y="-130.3" font-family="Times New Roman,serif" font-size="14.00">set_description(description)</text>
</g>
<!-- 1 -->
<g id="node2" class="node"><title>1</title>
<polygon fill="none" stroke="black" points="0,-0.5 0,-85.5 164,-85.5 164,-0.5 0,-0.5"/>
<text text-anchor="middle" x="82" y="-70.3" font-family="Times New Roman,serif" font-size="14.00">Dolphin</text>
<polyline fill="none" stroke="black" points="0,-62.5 164,-62.5 "/>
<polyline fill="none" stroke="black" points="0,-38.5 164,-38.5 "/>
<text text-anchor="start" x="8" y="-23.3" font-family="Times New Roman,serif" font-size="14.00">get_str()</text>
<text text-anchor="start" x="8" y="-8.3" font-family="Times New Roman,serif" font-size="14.00">swim_across_the_ocean()</text>
</g>
<!-- 1&#45;&gt;0 -->
<g id="edge1" class="edge"><title>1&#45;&gt;0</title>
<path fill="none" stroke="black" d="M102.957,-85.606C107.393,-94.4125 112.178,-103.912 116.938,-113.363"/>
<polygon fill="none" stroke="black" points="113.858,-115.029 121.483,-122.385 120.11,-111.879 113.858,-115.029"/>
</g>
<!-- 2 -->
<g id="node3" class="node"><title>2</title>
<polygon fill="none" stroke="black" points="182.5,-0.5 182.5,-85.5 253.5,-85.5 253.5,-0.5 182.5,-0.5"/>
<text text-anchor="middle" x="218" y="-70.3" font-family="Times New Roman,serif" font-size="14.00">Zebra</text>
<polyline fill="none" stroke="black" points="182.5,-62.5 253.5,-62.5 "/>
<polyline fill="none" stroke="black" points="182.5,-38.5 253.5,-38.5 "/>
<text text-anchor="start" x="190.5" y="-23.3" font-family="Times New Roman,serif" font-size="14.00">get_legs()</text>
<text text-anchor="start" x="190.5" y="-8.3" font-family="Times New Roman,serif" font-size="14.00">get_str()</text>
</g>
<!-- 2&#45;&gt;0 -->
<g id="edge2" class="edge"><title>2&#45;&gt;0</title>
<path fill="none" stroke="black" d="M197.043,-85.606C192.607,-94.4125 187.822,-103.912 183.062,-113.363"/>
<polygon fill="none" stroke="black" points="179.89,-111.879 178.517,-122.385 186.142,-115.029 179.89,-111.879"/>
</g>
</g>
</svg>
