<?xml version="1.0" encoding="UTF-8" standalone="no"?>
<!DOCTYPE svg PUBLIC "-//W3C//DTD SVG 1.1//EN"
 "http://www.w3.org/Graphics/SVG/1.1/DTD/svg11.dtd">
<!-- Generated by graphviz version 2.38.0 (20140413.2041)
 -->
<!-- Title: classes Pages: 1 -->
<svg width="560pt" height="308pt"
 viewBox="0.00 0.00 560.00 308.00" xmlns="http://www.w3.org/2000/svg" xmlns:xlink="http://www.w3.org/1999/xlink">
<g id="graph0" class="graph" transform="scale(1 1) rotate(0) translate(4 304)">
<title>classes</title>
<polygon fill="white" stroke="none" points="-4,4 -4,-304 556,-304 556,4 -4,4"/>
<!-- 0 -->
<g id="node1" class="node"><title>0</title>
<polygon fill="none" stroke="black" points="0,-0.5 0,-70.5 89,-70.5 89,-0.5 0,-0.5"/>
<text text-anchor="middle" x="44.5" y="-55.3" font-family="Times New Roman,serif" font-size="14.00">BlackDragon</text>
<polyline fill="none" stroke="black" points="0,-47.5 89,-47.5 "/>
<polyline fill="none" stroke="black" points="0,-23.5 89,-23.5 "/>
<text text-anchor="start" x="8" y="-8.3" font-family="Times New Roman,serif" font-size="14.00">question()</text>
</g>
<!-- 2 -->
<g id="node3" class="node"><title>2</title>
<polygon fill="none" stroke="black" points="218.5,-107.5 218.5,-192.5 362.5,-192.5 362.5,-107.5 218.5,-107.5"/>
<text text-anchor="middle" x="290.5" y="-177.3" font-family="Times New Roman,serif" font-size="14.00">Dragon</text>
<polyline fill="none" stroke="black" points="218.5,-169.5 362.5,-169.5 "/>
<polyline fill="none" stroke="black" points="218.5,-145.5 362.5,-145.5 "/>
<text text-anchor="start" x="226.5" y="-130.3" font-family="Times New Roman,serif" font-size="14.00">check_answer(answer)</text>
<text text-anchor="start" x="226.5" y="-115.3" font-family="Times New Roman,serif" font-size="14.00">set_answer(answer)</text>
</g>
<!-- 0&#45;&gt;2 -->
<g id="edge1" class="edge"><title>0&#45;&gt;2</title>
<path fill="none" stroke="black" d="M89.2498,-66.4704C92.0103,-68.056 94.774,-69.5789 97.5,-71 132.944,-89.4776 173.786,-106.548 208.747,-119.979"/>
<polygon fill="none" stroke="black" points="207.851,-123.383 218.442,-123.669 210.341,-116.841 207.851,-123.383"/>
</g>
<!-- 1 -->
<g id="node2" class="node"><title>1</title>
<polygon fill="none" stroke="black" points="107,-0.5 107,-70.5 226,-70.5 226,-0.5 107,-0.5"/>
<text text-anchor="middle" x="166.5" y="-55.3" font-family="Times New Roman,serif" font-size="14.00">DifferentialDragon</text>
<polyline fill="none" stroke="black" points="107,-47.5 226,-47.5 "/>
<polyline fill="none" stroke="black" points="107,-23.5 226,-23.5 "/>
<text text-anchor="start" x="115" y="-8.3" font-family="Times New Roman,serif" font-size="14.00">question()</text>
</g>
<!-- 1&#45;&gt;2 -->
<g id="edge2" class="edge"><title>1&#45;&gt;2</title>
<path fill="none" stroke="black" d="M204.041,-70.559C214.35,-79.9121 225.733,-90.24 236.762,-100.246"/>
<polygon fill="none" stroke="black" points="234.565,-102.978 244.323,-107.105 239.268,-97.7939 234.565,-102.978"/>
</g>
<!-- 3 -->
<g id="node4" class="node"><title>3</title>
<polygon fill="none" stroke="black" points="263,-229.5 263,-299.5 318,-299.5 318,-229.5 263,-229.5"/>
<text text-anchor="middle" x="290.5" y="-284.3" font-family="Times New Roman,serif" font-size="14.00">Enemy</text>
<polyline fill="none" stroke="black" points="263,-276.5 318,-276.5 "/>
<polyline fill="none" stroke="black" points="263,-252.5 318,-252.5 "/>
<text text-anchor="middle" x="290.5" y="-237.3" font-family="Times New Roman,serif" font-size="14.00"> </text>
</g>
<!-- 2&#45;&gt;3 -->
<g id="edge3" class="edge"><title>2&#45;&gt;3</title>
<path fill="none" stroke="black" d="M290.5,-192.571C290.5,-201.299 290.5,-210.533 290.5,-219.352"/>
<polygon fill="none" stroke="black" points="287,-219.456 290.5,-229.457 294,-219.457 287,-219.456"/>
</g>
<!-- 4 -->
<g id="node5" class="node"><title>4</title>
<polygon fill="none" stroke="black" points="244.5,-0.5 244.5,-70.5 336.5,-70.5 336.5,-0.5 244.5,-0.5"/>
<text text-anchor="middle" x="290.5" y="-55.3" font-family="Times New Roman,serif" font-size="14.00">GreenDragon</text>
<polyline fill="none" stroke="black" points="244.5,-47.5 336.5,-47.5 "/>
<polyline fill="none" stroke="black" points="244.5,-23.5 336.5,-23.5 "/>
<text text-anchor="start" x="252.5" y="-8.3" font-family="Times New Roman,serif" font-size="14.00">question()</text>
</g>
<!-- 4&#45;&gt;2 -->
<g id="edge4" class="edge"><title>4&#45;&gt;2</title>
<path fill="none" stroke="black" d="M290.5,-70.559C290.5,-78.9228 290.5,-88.0662 290.5,-97.0616"/>
<polygon fill="none" stroke="black" points="287,-97.1054 290.5,-107.105 294,-97.1054 287,-97.1054"/>
</g>
<!-- 5 -->
<g id="node6" class="node"><title>5</title>
<polygon fill="none" stroke="black" points="354.5,-0.5 354.5,-70.5 452.5,-70.5 452.5,-0.5 354.5,-0.5"/>
<text text-anchor="middle" x="403.5" y="-55.3" font-family="Times New Roman,serif" font-size="14.00">MythrilDragon</text>
<polyline fill="none" stroke="black" points="354.5,-47.5 452.5,-47.5 "/>
<polyline fill="none" stroke="black" points="354.5,-23.5 452.5,-23.5 "/>
<text text-anchor="start" x="362.5" y="-8.3" font-family="Times New Roman,serif" font-size="14.00">question()</text>
</g>
<!-- 5&#45;&gt;2 -->
<g id="edge5" class="edge"><title>5&#45;&gt;2</title>
<path fill="none" stroke="black" d="M369.29,-70.559C359.985,-79.8221 349.721,-90.0415 339.761,-99.957"/>
<polygon fill="none" stroke="black" points="337.198,-97.5696 332.581,-107.105 342.137,-102.53 337.198,-97.5696"/>
</g>
<!-- 6 -->
<g id="node7" class="node"><title>6</title>
<polygon fill="none" stroke="black" points="471,-0.5 471,-70.5 552,-70.5 552,-0.5 471,-0.5"/>
<text text-anchor="middle" x="511.5" y="-55.3" font-family="Times New Roman,serif" font-size="14.00">RedDragon</text>
<polyline fill="none" stroke="black" points="471,-47.5 552,-47.5 "/>
<polyline fill="none" stroke="black" points="471,-23.5 552,-23.5 "/>
<text text-anchor="start" x="479" y="-8.3" font-family="Times New Roman,serif" font-size="14.00">question()</text>
</g>
<!-- 6&#45;&gt;2 -->
<g id="edge6" class="edge"><title>6&#45;&gt;2</title>
<path fill="none" stroke="black" d="M470.948,-65.3447C467.791,-67.3231 464.619,-69.2309 461.5,-71 433.072,-87.1247 400.713,-102.572 371.851,-115.403"/>
<polygon fill="none" stroke="black" points="370.351,-112.239 362.612,-119.475 373.174,-118.645 370.351,-112.239"/>
</g>
</g>
</svg>
