<?xml version="1.0" encoding="UTF-8" standalone="no"?>
<!DOCTYPE svg PUBLIC "-//W3C//DTD SVG 1.1//EN"
 "http://www.w3.org/Graphics/SVG/1.1/DTD/svg11.dtd">
<!-- Generated by graphviz version 2.38.0 (20140413.2041)
 -->
<!-- Title: classes Pages: 1 -->
<svg width="160pt" height="200pt"
 viewBox="0.00 0.00 159.50 200.00" xmlns="http://www.w3.org/2000/svg" xmlns:xlink="http://www.w3.org/1999/xlink">
<g id="graph0" class="graph" transform="scale(1 1) rotate(0) translate(4 196)">
<title>classes</title>
<polygon fill="white" stroke="none" points="-4,4 -4,-196 155.5,-196 155.5,4 -4,4"/>
<!-- 0 -->
<g id="node1" class="node"><title>0</title>
<polygon fill="none" stroke="black" points="0,-0.5 0,-70.5 71,-70.5 71,-0.5 0,-0.5"/>
<text text-anchor="middle" x="35.5" y="-55.3" font-family="Times New Roman,serif" font-size="14.00">Rectangle</text>
<polyline fill="none" stroke="black" points="0,-47.5 71,-47.5 "/>
<polyline fill="none" stroke="black" points="0,-23.5 71,-23.5 "/>
<text text-anchor="start" x="8" y="-8.3" font-family="Times New Roman,serif" font-size="14.00">area()</text>
</g>
<!-- 1 -->
<g id="node2" class="node"><title>1</title>
<polygon fill="none" stroke="black" points="50.5,-107.5 50.5,-191.5 104.5,-191.5 104.5,-107.5 50.5,-107.5"/>
<text text-anchor="middle" x="77.5" y="-176.3" font-family="Times New Roman,serif" font-size="14.00">Shape</text>
<polyline fill="none" stroke="black" points="50.5,-168.5 104.5,-168.5 "/>
<text text-anchor="start" x="58.5" y="-153.3" font-family="Times New Roman,serif" font-size="14.00">base</text>
<text text-anchor="start" x="58.5" y="-138.3" font-family="Times New Roman,serif" font-size="14.00">height</text>
<polyline fill="none" stroke="black" points="50.5,-130.5 104.5,-130.5 "/>
<text text-anchor="middle" x="77.5" y="-115.3" font-family="Times New Roman,serif" font-size="14.00"> </text>
</g>
<!-- 0&#45;&gt;1 -->
<g id="edge1" class="edge"><title>0&#45;&gt;1</title>
<path fill="none" stroke="black" d="M48.3296,-70.7123C51.5524,-79.3064 55.0794,-88.7116 58.5323,-97.9196"/>
<polygon fill="none" stroke="black" points="55.2996,-99.2672 62.0881,-107.402 61.8539,-96.8093 55.2996,-99.2672"/>
</g>
<!-- 2 -->
<g id="node3" class="node"><title>2</title>
<polygon fill="none" stroke="black" points="89.5,-0.5 89.5,-70.5 151.5,-70.5 151.5,-0.5 89.5,-0.5"/>
<text text-anchor="middle" x="120.5" y="-55.3" font-family="Times New Roman,serif" font-size="14.00">Triangle</text>
<polyline fill="none" stroke="black" points="89.5,-47.5 151.5,-47.5 "/>
<polyline fill="none" stroke="black" points="89.5,-23.5 151.5,-23.5 "/>
<text text-anchor="start" x="97.5" y="-8.3" font-family="Times New Roman,serif" font-size="14.00">area()</text>
</g>
<!-- 2&#45;&gt;1 -->
<g id="edge2" class="edge"><title>2&#45;&gt;1</title>
<path fill="none" stroke="black" d="M107.365,-70.7123C104.065,-79.3064 100.454,-88.7116 96.9193,-97.9196"/>
<polygon fill="none" stroke="black" points="93.5957,-96.8114 93.2789,-107.402 100.131,-99.3204 93.5957,-96.8114"/>
</g>
</g>
</svg>
