<?xml version="1.0" encoding="UTF-8" standalone="no"?>
<!DOCTYPE svg PUBLIC "-//W3C//DTD SVG 1.1//EN"
 "http://www.w3.org/Graphics/SVG/1.1/DTD/svg11.dtd">
<!-- Generated by graphviz version 2.38.0 (20140413.2041)
 -->
<!-- Title: classes Pages: 1 -->
<svg width="244pt" height="246pt"
 viewBox="0.00 0.00 244.00 246.00" xmlns="http://www.w3.org/2000/svg" xmlns:xlink="http://www.w3.org/1999/xlink">
<g id="graph0" class="graph" transform="scale(1 1) rotate(0) translate(4 242)">
<title>classes</title>
<polygon fill="white" stroke="none" points="-4,4 -4,-242 240,-242 240,4 -4,4"/>
<!-- 0 -->
<g id="node1" class="node"><title>0</title>
<polygon fill="none" stroke="black" points="58.5,-107.5 58.5,-237.5 231.5,-237.5 231.5,-107.5 58.5,-107.5"/>
<text text-anchor="middle" x="145" y="-222.3" font-family="Times New Roman,serif" font-size="14.00">Animal</text>
<polyline fill="none" stroke="black" points="58.5,-214.5 231.5,-214.5 "/>
<polyline fill="none" stroke="black" points="58.5,-190.5 231.5,-190.5 "/>
<text text-anchor="start" x="66.5" y="-175.3" font-family="Times New Roman,serif" font-size="14.00">get_age()</text>
<text text-anchor="start" x="66.5" y="-160.3" font-family="Times New Roman,serif" font-size="14.00">get_description()</text>
<text text-anchor="start" x="66.5" y="-145.3" font-family="Times New Roman,serif" font-size="14.00">get_name()</text>
<text text-anchor="start" x="66.5" y="-130.3" font-family="Times New Roman,serif" font-size="14.00">get_str()</text>
<text text-anchor="start" x="66.5" y="-115.3" font-family="Times New Roman,serif" font-size="14.00">set_description(description)</text>
</g>
<!-- 1 -->
<g id="node2" class="node"><title>1</title>
<polygon fill="none" stroke="black" points="0,-0.5 0,-70.5 164,-70.5 164,-0.5 0,-0.5"/>
<text text-anchor="middle" x="82" y="-55.3" font-family="Times New Roman,serif" font-size="14.00">Dolphin</text>
<polyline fill="none" stroke="black" points="0,-47.5 164,-47.5 "/>
<polyline fill="none" stroke="black" points="0,-23.5 164,-23.5 "/>
<text text-anchor="start" x="8" y="-8.3" font-family="Times New Roman,serif" font-size="14.00">swim_across_the_ocean()</text>
</g>
<!-- 1&#45;&gt;0 -->
<g id="edge1" class="edge"><title>1&#45;&gt;0</title>
<path fill="none" stroke="black" d="M97.8976,-70.5662C101.875,-79.09 106.297,-88.5655 110.793,-98.1997"/>
<polygon fill="none" stroke="black" points="107.714,-99.8776 115.114,-107.459 114.057,-96.9174 107.714,-99.8776"/>
</g>
<!-- 2 -->
<g id="node3" class="node"><title>2</title>
<polygon fill="none" stroke="black" points="182,-0.5 182,-70.5 236,-70.5 236,-0.5 182,-0.5"/>
<text text-anchor="middle" x="209" y="-55.3" font-family="Times New Roman,serif" font-size="14.00">Zebra</text>
<polyline fill="none" stroke="black" points="182,-47.5 236,-47.5 "/>
<polyline fill="none" stroke="black" points="182,-23.5 236,-23.5 "/>
<text text-anchor="middle" x="209" y="-8.3" font-family="Times New Roman,serif" font-size="14.00"> </text>
</g>
<!-- 2&#45;&gt;0 -->
<g id="edge2" class="edge"><title>2&#45;&gt;0</title>
<path fill="none" stroke="black" d="M192.85,-70.5662C188.809,-79.09 184.317,-88.5655 179.75,-98.1997"/>
<polygon fill="none" stroke="black" points="176.481,-96.924 175.36,-107.459 182.806,-99.9226 176.481,-96.924"/>
</g>
</g>
</svg>
