<?xml version="1.0" encoding="UTF-8" standalone="no"?>
<!DOCTYPE svg PUBLIC "-//W3C//DTD SVG 1.1//EN"
 "http://www.w3.org/Graphics/SVG/1.1/DTD/svg11.dtd">
<!-- Generated by graphviz version 2.38.0 (20140413.2041)
 -->
<!-- Title: classes Pages: 1 -->
<svg width="135pt" height="246pt"
 viewBox="0.00 0.00 135.00 246.00" xmlns="http://www.w3.org/2000/svg" xmlns:xlink="http://www.w3.org/1999/xlink">
<g id="graph0" class="graph" transform="scale(1 1) rotate(0) translate(4 242)">
<title>classes</title>
<polygon fill="white" stroke="none" points="-4,4 -4,-242 131,-242 131,4 -4,4"/>
<!-- 0 -->
<g id="node1" class="node"><title>0</title>
<polygon fill="none" stroke="black" points="0,-0.5 0,-100.5 127,-100.5 127,-0.5 0,-0.5"/>
<text text-anchor="middle" x="63.5" y="-85.3" font-family="Times New Roman,serif" font-size="14.00">Daughter</text>
<polyline fill="none" stroke="black" points="0,-77.5 127,-77.5 "/>
<polyline fill="none" stroke="black" points="0,-53.5 127,-53.5 "/>
<text text-anchor="start" x="8" y="-38.3" font-family="Times New Roman,serif" font-size="14.00">get_mother()</text>
<text text-anchor="start" x="8" y="-23.3" font-family="Times New Roman,serif" font-size="14.00">get_str()</text>
<text text-anchor="start" x="8" y="-8.3" font-family="Times New Roman,serif" font-size="14.00">set_mother(mother)</text>
</g>
<!-- 1 -->
<g id="node2" class="node"><title>1</title>
<polygon fill="none" stroke="black" points="10,-137.5 10,-237.5 117,-237.5 117,-137.5 10,-137.5"/>
<text text-anchor="middle" x="63.5" y="-222.3" font-family="Times New Roman,serif" font-size="14.00">Mother</text>
<polyline fill="none" stroke="black" points="10,-214.5 117,-214.5 "/>
<polyline fill="none" stroke="black" points="10,-190.5 117,-190.5 "/>
<text text-anchor="start" x="18" y="-175.3" font-family="Times New Roman,serif" font-size="14.00">get_name()</text>
<text text-anchor="start" x="18" y="-160.3" font-family="Times New Roman,serif" font-size="14.00">get_str()</text>
<text text-anchor="start" x="18" y="-145.3" font-family="Times New Roman,serif" font-size="14.00">set_name(name)</text>
</g>
<!-- 0&#45;&gt;1 -->
<g id="edge1" class="edge"><title>0&#45;&gt;1</title>
<path fill="none" stroke="black" d="M63.5,-100.62C63.5,-109.181 63.5,-118.17 63.5,-126.975"/>
<polygon fill="none" stroke="black" points="60.0001,-127.19 63.5,-137.19 67.0001,-127.19 60.0001,-127.19"/>
</g>
</g>
</svg>
