<?xml version="1.0" encoding="UTF-8" standalone="no"?>
<!DOCTYPE svg PUBLIC "-//W3C//DTD SVG 1.1//EN"
 "http://www.w3.org/Graphics/SVG/1.1/DTD/svg11.dtd">
<!-- Generated by graphviz version 2.38.0 (20140413.2041)
 -->
<!-- Title: classes Pages: 1 -->
<svg width="555pt" height="291pt"
 viewBox="0.00 0.00 554.50 291.00" xmlns="http://www.w3.org/2000/svg" xmlns:xlink="http://www.w3.org/1999/xlink">
<g id="graph0" class="graph" transform="scale(1 1) rotate(0) translate(4 287)">
<title>classes</title>
<polygon fill="white" stroke="none" points="-4,4 -4,-287 550.5,-287 550.5,4 -4,4"/>
<!-- 0 -->
<g id="node1" class="node"><title>0</title>
<polygon fill="none" stroke="black" points="0,-15.5 0,-115.5 146,-115.5 146,-15.5 0,-15.5"/>
<text text-anchor="middle" x="73" y="-100.3" font-family="Times New Roman,serif" font-size="14.00">Announcement</text>
<polyline fill="none" stroke="black" points="0,-92.5 146,-92.5 "/>
<polyline fill="none" stroke="black" points="0,-68.5 146,-68.5 "/>
<text text-anchor="start" x="8" y="-53.3" font-family="Times New Roman,serif" font-size="14.00">get_out_date()</text>
<text text-anchor="start" x="8" y="-38.3" font-family="Times New Roman,serif" font-size="14.00">get_str()</text>
<text text-anchor="start" x="8" y="-23.3" font-family="Times New Roman,serif" font-size="14.00">set_out_date(out_date)</text>
</g>
<!-- 3 -->
<g id="node4" class="node"><title>3</title>
<polygon fill="none" stroke="black" points="185.5,-167.5 185.5,-282.5 274.5,-282.5 274.5,-167.5 185.5,-167.5"/>
<text text-anchor="middle" x="230" y="-267.3" font-family="Times New Roman,serif" font-size="14.00">Publication</text>
<polyline fill="none" stroke="black" points="185.5,-259.5 274.5,-259.5 "/>
<polyline fill="none" stroke="black" points="185.5,-235.5 274.5,-235.5 "/>
<text text-anchor="start" x="193.5" y="-220.3" font-family="Times New Roman,serif" font-size="14.00">get_text()</text>
<text text-anchor="start" x="193.5" y="-205.3" font-family="Times New Roman,serif" font-size="14.00">get_title()</text>
<text text-anchor="start" x="193.5" y="-190.3" font-family="Times New Roman,serif" font-size="14.00">set_text(text)</text>
<text text-anchor="start" x="193.5" y="-175.3" font-family="Times New Roman,serif" font-size="14.00">set_title(title)</text>
</g>
<!-- 0&#45;&gt;3 -->
<g id="edge1" class="edge"><title>0&#45;&gt;3</title>
<path fill="none" stroke="black" d="M122.245,-115.902C140.108,-133.821 160.329,-154.107 178.389,-172.225"/>
<polygon fill="none" stroke="black" points="175.918,-174.704 185.457,-179.315 180.876,-169.762 175.918,-174.704"/>
</g>
<!-- 1 -->
<g id="node2" class="node"><title>1</title>
<polygon fill="none" stroke="black" points="164.5,-15.5 164.5,-115.5 295.5,-115.5 295.5,-15.5 164.5,-15.5"/>
<text text-anchor="middle" x="230" y="-100.3" font-family="Times New Roman,serif" font-size="14.00">Article</text>
<polyline fill="none" stroke="black" points="164.5,-92.5 295.5,-92.5 "/>
<polyline fill="none" stroke="black" points="164.5,-68.5 295.5,-68.5 "/>
<text text-anchor="start" x="172.5" y="-53.3" font-family="Times New Roman,serif" font-size="14.00">get_authors()</text>
<text text-anchor="start" x="172.5" y="-38.3" font-family="Times New Roman,serif" font-size="14.00">get_str()</text>
<text text-anchor="start" x="172.5" y="-23.3" font-family="Times New Roman,serif" font-size="14.00">set_authors(authors)</text>
</g>
<!-- 1&#45;&gt;3 -->
<g id="edge2" class="edge"><title>1&#45;&gt;3</title>
<path fill="none" stroke="black" d="M230,-115.902C230,-129.041 230,-143.453 230,-157.35"/>
<polygon fill="none" stroke="black" points="226.5,-157.352 230,-167.352 233.5,-157.352 226.5,-157.352"/>
</g>
<!-- 2 -->
<g id="node3" class="node"><title>2</title>
<polygon fill="none" stroke="black" points="313.5,-0.5 313.5,-130.5 546.5,-130.5 546.5,-0.5 313.5,-0.5"/>
<text text-anchor="middle" x="430" y="-115.3" font-family="Times New Roman,serif" font-size="14.00">News</text>
<polyline fill="none" stroke="black" points="313.5,-107.5 546.5,-107.5 "/>
<polyline fill="none" stroke="black" points="313.5,-83.5 546.5,-83.5 "/>
<text text-anchor="start" x="321.5" y="-68.3" font-family="Times New Roman,serif" font-size="14.00">get_publication_date()</text>
<text text-anchor="start" x="321.5" y="-53.3" font-family="Times New Roman,serif" font-size="14.00">get_sources()</text>
<text text-anchor="start" x="321.5" y="-38.3" font-family="Times New Roman,serif" font-size="14.00">get_str()</text>
<text text-anchor="start" x="321.5" y="-23.3" font-family="Times New Roman,serif" font-size="14.00">set_publication_date(publication_date)</text>
<text text-anchor="start" x="321.5" y="-8.3" font-family="Times New Roman,serif" font-size="14.00">set_sources(sources)</text>
</g>
<!-- 2&#45;&gt;3 -->
<g id="edge3" class="edge"><title>2&#45;&gt;3</title>
<path fill="none" stroke="black" d="M348.652,-130.561C326.312,-148.155 302.683,-166.762 282.443,-182.701"/>
<polygon fill="none" stroke="black" points="280.264,-179.962 274.573,-188.899 284.595,-185.462 280.264,-179.962"/>
</g>
</g>
</svg>
