<?xml version="1.0" encoding="UTF-8" standalone="no"?>
<!DOCTYPE svg PUBLIC "-//W3C//DTD SVG 1.1//EN"
 "http://www.w3.org/Graphics/SVG/1.1/DTD/svg11.dtd">
<!-- Generated by graphviz version 2.38.0 (20140413.2041)
 -->
<!-- Title: classes Pages: 1 -->
<svg width="560pt" height="445pt"
 viewBox="0.00 0.00 560.00 445.00" xmlns="http://www.w3.org/2000/svg" xmlns:xlink="http://www.w3.org/1999/xlink">
<g id="graph0" class="graph" transform="scale(1 1) rotate(0) translate(4 441)">
<title>classes</title>
<polygon fill="white" stroke="none" points="-4,4 -4,-441 556,-441 556,4 -4,4"/>
<!-- 0 -->
<g id="node1" class="node"><title>0</title>
<polygon fill="none" stroke="black" points="346,-351.5 346,-436.5 435,-436.5 435,-351.5 346,-351.5"/>
<text text-anchor="middle" x="390.5" y="-421.3" font-family="Times New Roman,serif" font-size="14.00">Attacker</text>
<polyline fill="none" stroke="black" points="346,-413.5 435,-413.5 "/>
<polyline fill="none" stroke="black" points="346,-389.5 435,-389.5 "/>
<text text-anchor="start" x="354" y="-374.3" font-family="Times New Roman,serif" font-size="14.00">attack(target)</text>
<text text-anchor="start" x="354" y="-359.3" font-family="Times New Roman,serif" font-size="14.00">is_alive()</text>
</g>
<!-- 1 -->
<g id="node2" class="node"><title>1</title>
<polygon fill="none" stroke="black" points="0,-0.5 0,-70.5 89,-70.5 89,-0.5 0,-0.5"/>
<text text-anchor="middle" x="44.5" y="-55.3" font-family="Times New Roman,serif" font-size="14.00">BlackDragon</text>
<polyline fill="none" stroke="black" points="0,-47.5 89,-47.5 "/>
<polyline fill="none" stroke="black" points="0,-23.5 89,-23.5 "/>
<text text-anchor="start" x="8" y="-8.3" font-family="Times New Roman,serif" font-size="14.00">question()</text>
</g>
<!-- 3 -->
<g id="node4" class="node"><title>3</title>
<polygon fill="none" stroke="black" points="261.5,-107.5 261.5,-177.5 319.5,-177.5 319.5,-107.5 261.5,-107.5"/>
<text text-anchor="middle" x="290.5" y="-162.3" font-family="Times New Roman,serif" font-size="14.00">Dragon</text>
<polyline fill="none" stroke="black" points="261.5,-154.5 319.5,-154.5 "/>
<polyline fill="none" stroke="black" points="261.5,-130.5 319.5,-130.5 "/>
<text text-anchor="middle" x="290.5" y="-115.3" font-family="Times New Roman,serif" font-size="14.00"> </text>
</g>
<!-- 1&#45;&gt;3 -->
<g id="edge1" class="edge"><title>1&#45;&gt;3</title>
<path fill="none" stroke="black" d="M89.1935,-66.5807C91.9682,-68.1385 94.7504,-69.6252 97.5,-71 148.827,-96.6627 211.858,-117.912 251.616,-130.16"/>
<polygon fill="none" stroke="black" points="250.615,-133.514 261.201,-133.078 252.653,-126.818 250.615,-133.514"/>
</g>
<!-- 2 -->
<g id="node3" class="node"><title>2</title>
<polygon fill="none" stroke="black" points="107,-0.5 107,-70.5 226,-70.5 226,-0.5 107,-0.5"/>
<text text-anchor="middle" x="166.5" y="-55.3" font-family="Times New Roman,serif" font-size="14.00">DifferentialDragon</text>
<polyline fill="none" stroke="black" points="107,-47.5 226,-47.5 "/>
<polyline fill="none" stroke="black" points="107,-23.5 226,-23.5 "/>
<text text-anchor="start" x="115" y="-8.3" font-family="Times New Roman,serif" font-size="14.00">question()</text>
</g>
<!-- 2&#45;&gt;3 -->
<g id="edge2" class="edge"><title>2&#45;&gt;3</title>
<path fill="none" stroke="black" d="M206.759,-70.5905C221.795,-83.3228 238.785,-97.7091 253.512,-110.18"/>
<polygon fill="none" stroke="black" points="251.542,-113.097 261.435,-116.888 256.065,-107.755 251.542,-113.097"/>
</g>
<!-- 4 -->
<g id="node5" class="node"><title>4</title>
<polygon fill="none" stroke="black" points="260.5,-214.5 260.5,-314.5 404.5,-314.5 404.5,-214.5 260.5,-214.5"/>
<text text-anchor="middle" x="332.5" y="-299.3" font-family="Times New Roman,serif" font-size="14.00">Enemy</text>
<polyline fill="none" stroke="black" points="260.5,-291.5 404.5,-291.5 "/>
<polyline fill="none" stroke="black" points="260.5,-267.5 404.5,-267.5 "/>
<text text-anchor="start" x="268.5" y="-252.3" font-family="Times New Roman,serif" font-size="14.00">check_answer(answer)</text>
<text text-anchor="start" x="268.5" y="-237.3" font-family="Times New Roman,serif" font-size="14.00">get_cheat_code()</text>
<text text-anchor="start" x="268.5" y="-222.3" font-family="Times New Roman,serif" font-size="14.00">set_answer(answer)</text>
</g>
<!-- 3&#45;&gt;4 -->
<g id="edge3" class="edge"><title>3&#45;&gt;4</title>
<path fill="none" stroke="black" d="M302.423,-177.566C305.375,-186 308.623,-195.281 311.86,-204.529"/>
<polygon fill="none" stroke="black" points="308.609,-205.835 315.216,-214.118 315.216,-203.523 308.609,-205.835"/>
</g>
<!-- 4&#45;&gt;0 -->
<g id="edge4" class="edge"><title>4&#45;&gt;0</title>
<path fill="none" stroke="black" d="M354.924,-314.795C358.994,-323.74 363.245,-333.087 367.335,-342.078"/>
<polygon fill="none" stroke="black" points="364.198,-343.634 371.525,-351.288 370.57,-340.736 364.198,-343.634"/>
</g>
<!-- 5 -->
<g id="node6" class="node"><title>5</title>
<polygon fill="none" stroke="black" points="244.5,-0.5 244.5,-70.5 336.5,-70.5 336.5,-0.5 244.5,-0.5"/>
<text text-anchor="middle" x="290.5" y="-55.3" font-family="Times New Roman,serif" font-size="14.00">GreenDragon</text>
<polyline fill="none" stroke="black" points="244.5,-47.5 336.5,-47.5 "/>
<polyline fill="none" stroke="black" points="244.5,-23.5 336.5,-23.5 "/>
<text text-anchor="start" x="252.5" y="-8.3" font-family="Times New Roman,serif" font-size="14.00">question()</text>
</g>
<!-- 5&#45;&gt;3 -->
<g id="edge5" class="edge"><title>5&#45;&gt;3</title>
<path fill="none" stroke="black" d="M290.5,-70.5905C290.5,-79.0263 290.5,-88.1882 290.5,-97.038"/>
<polygon fill="none" stroke="black" points="287,-97.2212 290.5,-107.221 294,-97.2213 287,-97.2212"/>
</g>
<!-- 6 -->
<g id="node7" class="node"><title>6</title>
<polygon fill="none" stroke="black" points="422.5,-229.5 422.5,-299.5 476.5,-299.5 476.5,-229.5 422.5,-229.5"/>
<text text-anchor="middle" x="449.5" y="-284.3" font-family="Times New Roman,serif" font-size="14.00">Hero</text>
<polyline fill="none" stroke="black" points="422.5,-276.5 476.5,-276.5 "/>
<polyline fill="none" stroke="black" points="422.5,-252.5 476.5,-252.5 "/>
<text text-anchor="middle" x="449.5" y="-237.3" font-family="Times New Roman,serif" font-size="14.00"> </text>
</g>
<!-- 6&#45;&gt;0 -->
<g id="edge6" class="edge"><title>6&#45;&gt;0</title>
<path fill="none" stroke="black" d="M433.689,-299.668C427.641,-312.738 420.607,-327.939 413.993,-342.232"/>
<polygon fill="none" stroke="black" points="410.745,-340.916 409.722,-351.461 417.098,-343.856 410.745,-340.916"/>
</g>
<!-- 7 -->
<g id="node8" class="node"><title>7</title>
<polygon fill="none" stroke="black" points="354.5,-0.5 354.5,-70.5 452.5,-70.5 452.5,-0.5 354.5,-0.5"/>
<text text-anchor="middle" x="403.5" y="-55.3" font-family="Times New Roman,serif" font-size="14.00">MythrilDragon</text>
<polyline fill="none" stroke="black" points="354.5,-47.5 452.5,-47.5 "/>
<polyline fill="none" stroke="black" points="354.5,-23.5 452.5,-23.5 "/>
<text text-anchor="start" x="362.5" y="-8.3" font-family="Times New Roman,serif" font-size="14.00">question()</text>
</g>
<!-- 7&#45;&gt;3 -->
<g id="edge7" class="edge"><title>7&#45;&gt;3</title>
<path fill="none" stroke="black" d="M366.812,-70.5905C354.217,-82.2936 340.119,-95.3941 327.499,-107.12"/>
<polygon fill="none" stroke="black" points="324.803,-104.848 319.86,-114.219 329.568,-109.976 324.803,-104.848"/>
</g>
<!-- 8 -->
<g id="node9" class="node"><title>8</title>
<polygon fill="none" stroke="black" points="471,-0.5 471,-70.5 552,-70.5 552,-0.5 471,-0.5"/>
<text text-anchor="middle" x="511.5" y="-55.3" font-family="Times New Roman,serif" font-size="14.00">RedDragon</text>
<polyline fill="none" stroke="black" points="471,-47.5 552,-47.5 "/>
<polyline fill="none" stroke="black" points="471,-23.5 552,-23.5 "/>
<text text-anchor="start" x="479" y="-8.3" font-family="Times New Roman,serif" font-size="14.00">question()</text>
</g>
<!-- 8&#45;&gt;3 -->
<g id="edge8" class="edge"><title>8&#45;&gt;3</title>
<path fill="none" stroke="black" d="M470.966,-66.0953C467.832,-67.8762 464.657,-69.536 461.5,-71 405.943,-96.7599 382.22,-77.6005 328.5,-107 328.407,-107.051 328.314,-107.102 328.222,-107.153"/>
<polygon fill="none" stroke="black" points="326.288,-104.235 319.775,-112.591 330.078,-110.121 326.288,-104.235"/>
</g>
<!-- 9 -->
<g id="node10" class="node"><title>9</title>
<polygon fill="none" stroke="black" points="338,-107.5 338,-177.5 411,-177.5 411,-107.5 338,-107.5"/>
<text text-anchor="middle" x="374.5" y="-162.3" font-family="Times New Roman,serif" font-size="14.00">Troll</text>
<polyline fill="none" stroke="black" points="338,-154.5 411,-154.5 "/>
<polyline fill="none" stroke="black" points="338,-130.5 411,-130.5 "/>
<text text-anchor="start" x="346" y="-115.3" font-family="Times New Roman,serif" font-size="14.00">question()</text>
</g>
<!-- 9&#45;&gt;4 -->
<g id="edge9" class="edge"><title>9&#45;&gt;4</title>
<path fill="none" stroke="black" d="M362.577,-177.566C359.625,-186 356.377,-195.281 353.14,-204.529"/>
<polygon fill="none" stroke="black" points="349.784,-203.523 349.784,-214.118 356.391,-205.835 349.784,-203.523"/>
</g>
</g>
</svg>
